<svg xmlns="http://www.w3.org/2000/svg" viewBox="0 0 120.84 63.13"><g id="Layer_2" data-name="Layer 2"><g id="Layer_1-2" data-name="Layer 1"><rect x="2.57" width="4.01" height="26.46"/><path d="M11.42,8.09A19.46,19.46,0,0,1,19.3,6.22c7.76,0,9.93,3.61,9.93,9.09V26.39H24.8V24.85a15.2,15.2,0,0,1-8,1.91c-5.58,0-7.59-3-7.59-5.92s2.73-6.66,8.11-6.66a14.22,14.22,0,0,1,7.5,1.94v-.81c0-3.74-.57-5.46-5.18-5.46a16.77,16.77,0,0,0-8.2,2.3ZM24.59,20.46a11.08,11.08,0,0,0-6.71-2.58c-3.08,0-4.26,1.55-4.26,3,0,1.91,2.42,2.54,4.82,2.23a10.75,10.75,0,0,0,6.15-2.67Z"/><path d="M15.67,48a5.26,5.26,0,0,1-5.06,3c-4.06,0-5.5-3.26-5.5-6.05S6.55,39,10.61,39a5.24,5.24,0,0,1,5.05,3l.22.44L20,40l-.22-.38c-1.26-2.22-3.89-4.87-9.18-4.87C3.32,34.75,0,40.07,0,45S3.32,55.26,10.61,55.26c5.29,0,7.92-2.64,9.18-4.86L20,50l-4.14-2.43Z"/><path d="M33.51,34.75c-2.48,0-4.61,1.62-6,3V35.11H22.32V55.23h5.22V42.54a8.1,8.1,0,0,1,5.37-2.85,5.48,5.48,0,0,1,4.4,2.06l.41.57L40.33,38v-.13c0-.4-2.76-3.16-6.82-3.16"/><path d="M56.9,46.68c-1.28,1.85-3.68,4-6.38,4-3.13,0-3.39-3.25-3.39-6.86V35.11H42v8.66c0,7.84,2.39,11.49,7.55,11.49a11,11,0,0,0,7.35-3.36v2.56c0,1.92-.81,4.21-4.69,4.22h0a9.28,9.28,0,0,1-6.49-2.37L45.35,56l-3.14,3.56.26.29c.12.14,3,3.33,9.83,3.33,8,0,9.74-4.71,9.74-8.67V35.11H56.9Z"/><path d="M77.11,34.75a11.13,11.13,0,0,0-7.35,2.9V35.11H64.62V62.93h5.14V52c1.22,1.41,3.33,3.22,6,3.22,5.32,0,8.9-5.3,8.9-10.25,0-4.73-2-10.26-7.56-10.26M79.6,45c0,2.8-1.26,5.8-4.81,5.8-2.17,0-3.92-2.19-5-4.08V42.61a7.79,7.79,0,0,1,6.37-3.41c3.13,0,3.47,4.06,3.47,5.81"/><path d="M94.29,28.17l-5.14,1.62V35.1H86v4.2h3.12v7.89c0,4,0,8.07,5,8.07,2.07,0,4.61-1.86,4.71-1.94l.22-.16-.5-3.26-.56.29a7.18,7.18,0,0,1-2.67.8c-.13,0-.6,0-.84-1.09a13.18,13.18,0,0,1-.18-2.71V39.3h5.34V35.1H94.29Z"/><path d="M110.92,34.87a19,19,0,0,0-7.71,1.82l-.27.13v5l.69-.45a15.63,15.63,0,0,1,7.58-2.12c4.08,0,4.49,1.38,4.49,4.76A14.21,14.21,0,0,0,109,42.47h0a8.53,8.53,0,0,0-6.1,2.24,6.52,6.52,0,0,0-2.09,4.57c0,2.95,2,6.1,7.7,6.1a16.19,16.19,0,0,0,7.2-1.48V55h5.13V44c0-6.31-3.06-9.13-9.92-9.13m4.25,14A9.3,9.3,0,0,1,110,51a4.87,4.87,0,0,1-3.62-.65,1.31,1.31,0,0,1-.46-1c0-1.1.94-2.38,3.61-2.38a9.63,9.63,0,0,1,5.61,2"/></g></g></svg>